<svg height="800" width="800" xmlns="http://www.w3.org/2000/svg" viewBox="0 0 512.003 512.003" xml:space="preserve"><circle style="fill:#fc4c59" cx="256.001" cy="256.001" r="256.001"/><path style="fill:#bc3b4a" d="M310.859 474.208c-141.385 0-256-114.615-256-256 0-75.537 32.722-143.422 84.757-190.281C56.738 70.303 0 156.525 0 256c0 141.385 114.615 256 256 256 65.849 0 125.883-24.87 171.243-65.718-34.918 17.853-74.473 27.926-116.384 27.926z"/><path style="fill:#7c152e" d="M407.48 412.22a10.406 10.406 0 0 1-9.108-5.349c-12.728-22.847-36.862-37.041-62.983-37.041-25.446 0-49.83 14.304-63.634 37.328-2.959 4.932-9.358 6.531-14.287 3.577-4.934-2.958-6.535-9.354-3.577-14.287 17.548-29.266 48.776-47.447 81.498-47.447 33.672 0 64.778 18.291 81.179 47.734 2.799 5.024.996 11.367-4.03 14.165a10.356 10.356 0 0 1-5.058 1.32z"/><circle style="fill:#fff" cx="255.46" cy="250.35" r="28.406"/><circle style="fill:#fff" cx="407.469" cy="242.671" r="28.406"/><path style="fill:#7c152e" d="M255.963 289.19c-4.734 0-9.48-.847-14.05-2.549-10.062-3.748-18.061-11.189-22.526-20.953-4.503-9.848-4.587-21.634-.23-32.339a43.481 43.481 0 0 1 10.391-15.201c-1.863-.957-3.755-1.933-5.671-2.927-7.112-3.692-12.829-7.068-18.357-10.331-6.536-3.858-13.296-7.847-22.901-12.713-5.131-2.598-7.185-8.865-4.585-13.996 2.599-5.132 8.865-7.186 13.997-4.585 10.203 5.167 17.256 9.331 24.077 13.357 5.532 3.266 10.759 6.35 17.369 9.783 4.445 2.308 8.754 4.509 12.897 6.625 17.723 9.054 33.029 16.873 43.217 25.139a10.433 10.433 0 0 1 2.909 3.756c4.466 9.765 4.86 20.685 1.114 30.746-3.748 10.06-11.191 18.061-20.954 22.526-5.332 2.439-11.006 3.662-16.697 3.662zm-5.37-60.225c-5.504 2.17-9.813 6.51-12.143 12.236-2.201 5.41-2.245 11.178-.119 15.824a19.242 19.242 0 0 0 10.853 10.096 19.255 19.255 0 0 0 14.812-.536 19.24 19.24 0 0 0 10.096-10.855 19.23 19.23 0 0 0 .299-12.664c-5.966-4.428-14.211-9.07-23.798-14.101zM408.833 282.103c-5.692 0-11.366-1.225-16.695-3.663-9.763-4.464-17.206-12.465-20.954-22.526-3.746-10.062-3.352-20.98 1.114-30.746a10.41 10.41 0 0 1 3.283-4.045c10.946-8.086 25.403-16.492 42.966-24.984 26.358-12.745 28.111-13.772 49.545-26.346l3.256-1.909c4.961-2.91 11.342-1.246 14.253 3.716 2.91 4.961 1.246 11.343-3.716 14.253l-3.253 1.908c-19.008 11.15-23.069 13.532-42.145 22.827a40.28 40.28 0 0 1 9.044 12.847c4.927 11.08 4.881 24.225-.121 35.163-4.464 9.763-12.465 17.206-22.526 20.954a40.172 40.172 0 0 1-14.051 2.551zm-18.481-45.957a19.214 19.214 0 0 0 .351 12.497 19.25 19.25 0 0 0 10.096 10.855 19.26 19.26 0 0 0 14.812.536 19.25 19.25 0 0 0 10.855-10.096c2.518-5.506 2.529-12.418.029-18.041-1.55-3.485-4.773-8.026-11.411-10.673-9.627 5.105-17.906 10.098-24.732 14.922z"/><ellipse transform="rotate(-74.199 304.494 80.912)" style="fill:#f76b6b" cx="304.493" cy="80.909" rx="29.854" ry="53.46"/></svg>