<svg height="800" width="800" xmlns="http://www.w3.org/2000/svg" viewBox="0 0 512.003 512.003" xml:space="preserve"><circle style="fill:#fddf6d" cx="256.001" cy="256.001" r="256.001"/><path style="fill:#fcc56b" d="M310.859 474.208c-141.385 0-256-114.615-256-256 0-75.537 32.722-143.422 84.757-190.281C56.738 70.303 0 156.525 0 256c0 141.385 114.615 256 256 256 65.849 0 125.883-24.87 171.243-65.718-34.918 17.853-74.473 27.926-116.384 27.926z"/><path style="fill:#7f184c" d="M293.248 427.894c-57.23 0-103.624-46.394-103.624-103.624h207.248c0 57.23-46.395 103.624-103.624 103.624zM245.899 187.173c-5.752 0-10.414-4.663-10.414-10.414 0-13.433-10.928-24.362-24.362-24.362-13.433 0-24.362 10.93-24.362 24.362 0 5.752-4.663 10.414-10.414 10.414-5.752 0-10.414-4.663-10.414-10.414 0-24.918 20.273-45.19 45.19-45.19s45.19 20.272 45.19 45.19c.001 5.751-4.662 10.414-10.414 10.414zM421.798 187.173c-5.752 0-10.414-4.663-10.414-10.414 0-13.433-10.928-24.362-24.362-24.362s-24.362 10.93-24.362 24.362c0 5.752-4.663 10.414-10.414 10.414s-10.414-4.663-10.414-10.414c0-24.918 20.273-45.19 45.19-45.19s45.19 20.272 45.19 45.19c.001 5.751-4.662 10.414-10.414 10.414z"/><path style="fill:#f9a880" d="M145.987 240.152c-19.011 0-34.423 15.412-34.423 34.423h68.848c-.002-19.011-15.414-34.423-34.425-34.423zM446.251 235.539c-19.011 0-34.423 15.412-34.423 34.423h68.848c0-19.011-15.412-34.423-34.425-34.423z"/><path style="fill:#f2f2f2" d="M214.907 324.27v16.176c0 6.821 5.529 12.349 12.349 12.349h131.982c6.821 0 12.349-5.529 12.349-12.349V324.27h-156.68z"/><path style="fill:#fc4c59" d="M295.422 384.903c-28.011-13.014-59.094-11.123-84.3 2.374 18.94 24.686 48.726 40.616 82.245 40.616 14.772 0 28.809-3.112 41.526-8.682-9.329-14.434-22.706-26.519-39.471-34.308z"/><ellipse transform="rotate(-74.199 302.687 71.18)" style="fill:#fceb88" cx="302.685" cy="71.177" rx="29.854" ry="53.46"/></svg>