<?xml version="1.0" encoding="iso-8859-1"?>
<!-- Uploaded to: SVG Repo, www.svgrepo.com, Generator: SVG Repo Mixer Tools -->
<svg height="800px" width="800px" version="1.1" id="Layer_1" xmlns="http://www.w3.org/2000/svg" xmlns:xlink="http://www.w3.org/1999/xlink" 
	 viewBox="0 0 512.003 512.003" xml:space="preserve">
<circle style="fill:#FDDF6D;" cx="256.001" cy="256.001" r="256.001"/>
<path style="fill:#FCC56B;" d="M310.859,474.208c-141.385,0-256-114.615-256-256c0-75.537,32.722-143.422,84.757-190.281
	C56.738,70.303,0,156.525,0,256c0,141.385,114.615,256,256,256c65.849,0,125.883-24.87,171.243-65.718
	C392.325,464.135,352.77,474.208,310.859,474.208z"/>
<g>
	<path style="fill:#3FA9F5;" d="M214.76,207.477c-25.664,1.047-39.146,21.868-40.262,23.658v267.611
		C200.099,507.338,227.505,512,256,512c1.037,0,2.069-0.028,3.105-0.039c0-93.609,0-187.217,0-280.827
		C249.526,215.822,232.573,206.749,214.76,207.477z"/>
	<path style="fill:#3FA9F5;" d="M392.434,207.477c-25.664,1.047-39.146,21.868-40.262,23.658v262.168
		c31.909-12.944,60.621-32.124,84.606-56.046c0-68.706,0-137.414,0-206.122C427.2,215.822,410.247,206.749,392.434,207.477z"/>
</g>
<g>
	<path style="fill:#7F184C;" d="M450.563,250.716c-3.656,0-7.203-1.927-9.108-5.349c-9.456-16.976-27.387-27.519-46.793-27.519
		c-18.913,0-37.051,10.655-47.333,27.807c-2.956,4.932-9.355,6.533-14.287,3.577c-4.934-2.958-6.535-9.354-3.577-14.287
		c14.026-23.394,39.008-37.927,65.199-37.927c26.957,0,51.858,14.643,64.989,38.214c2.799,5.024,0.996,11.367-4.03,14.165
		C454.016,250.293,452.277,250.716,450.563,250.716z"/>
	<path style="fill:#7F184C;" d="M269.71,250.716c-3.656,0.001-7.203-1.927-9.108-5.349c-9.455-16.976-27.386-27.519-46.793-27.519
		c-18.913,0-37.05,10.655-47.333,27.807c-2.958,4.932-9.355,6.533-14.287,3.577c-4.934-2.958-6.535-9.354-3.577-14.287
		c14.026-23.394,39.008-37.927,65.199-37.927c26.957,0,51.86,14.643,64.989,38.214c2.799,5.024,0.994,11.367-4.03,14.165
		C273.163,250.293,271.424,250.716,269.71,250.716z"/>
	<circle style="fill:#7F184C;" cx="305.644" cy="375.962" r="46.533"/>
</g>
<ellipse transform="matrix(0.2723 -0.9622 0.9622 0.2723 149.2874 344.5109)" style="fill:#FCEB88;" cx="302.412" cy="73.556" rx="29.854" ry="53.46"/>
</svg>